<svg width="229" height="235" viewBox="0 0 229 235" fill="none" xmlns="http://www.w3.org/2000/svg">
<path id="Vector" d="M67.0557 113.831C92.5225 112.909 110.729 110.259 121.677 105.88C140.46 98.1592 149.852 83.6396 149.852 62.3213C149.852 41.8096 141.439 27.8086 124.615 20.3184C115.627 16.2852 103.7 14.2686 88.835 14.2686C78.8096 14.2686 72.6445 15.0176 70.3398 16.5156C68.1504 17.8984 67.0557 21.2402 67.0557 26.541V113.831ZM31.1025 228.104C31.1025 228.104 31.1025 225.347 31.1025 221C31.1025 216.347 31.1025 207.229 31.1025 192.479V39.1592C31.1025 26.7139 29.2012 18.5898 25.3984 14.7871C21.7109 10.8691 13.4717 8.3916 0.680664 7.35449V0.786133H98.6875C119.084 0.786133 136.081 3.37891 149.679 8.56445C175.491 18.3594 188.397 36.3936 188.397 62.667C188.397 80.2979 182.636 93.8379 171.112 103.287C159.704 112.736 144.147 118.959 124.442 121.955L197.386 211.665C201.88 217.196 206.374 221.229 210.868 223.765C215.362 226.3 221.124 227.913 228.153 228.604V235H171.112L86.7607 126.104L67.0557 126.968V196.627C67.0557 209.764 67.0557 217.5 67.0557 221.5C67.0557 226.5 67.0557 228.104 67.0557 228.104V234.5H31.1025V228.104Z" fill="white"/>
</svg>
